# xmcd
#
# Track frame offsets:
#	150
#	29311
#	50047
#	67718
#	88778
#	122604
#	148481
#	166615
#	198960
#	220660
#	237705
#	262947
#	284585
#
# Disc length: 4094 seconds
#
# Revision: 0
# Processed by: cddbd v1.5.2PL0 Copyright (c) Steve Scherf et al.
# Submitted via: audiograbber 1.83.01
#
DISCID=bf0ffc0d
DTITLE=Gross, Timo - Road Worn
DYEAR=2010
DGENRE=Blues
TTITLE0=Struttin´
TTITLE1=Desire
TTITLE2=Diggin´ In The Dirt
TTITLE3=Voodoo Priest
TTITLE4=Don´t Mess Around With Love
TTITLE5=Sugar Mama
TTITLE6=Lovesick
TTITLE7=Sweet Love
TTITLE8=I Need You Badly
TTITLE9=In The Skillet
TTITLE10=Down To The Delta
TTITLE11=Travellin´
TTITLE12=Here Comes The Blues
EXTD=
EXTT0=
EXTT1=
EXTT2=
EXTT3=
EXTT4=
EXTT5=
EXTT6=
EXTT7=
EXTT8=
EXTT9=
EXTT10=
EXTT11=
EXTT12=
PLAYORDER=
